<svg width="23" height="26" viewBox="0 0 23 26" fill="none" xmlns="http://www.w3.org/2000/svg">
<g id="Group">
<path id="Vector" d="M4.3125 6.50146C4.3125 6.28598 4.38823 6.07931 4.52302 5.92694C4.65781 5.77457 4.84063 5.68896 5.03125 5.68896H13.6562C13.8469 5.68896 14.0297 5.77457 14.1645 5.92694C14.2993 6.07931 14.375 6.28598 14.375 6.50146C14.375 6.71695 14.2993 6.92362 14.1645 7.07599C14.0297 7.22836 13.8469 7.31396 13.6562 7.31396H5.03125C4.84063 7.31396 4.65781 7.22836 4.52302 7.07599C4.38823 6.92362 4.3125 6.71695 4.3125 6.50146ZM4.3125 9.75146C4.3125 9.53598 4.38823 9.32931 4.52302 9.17694C4.65781 9.02457 4.84063 8.93896 5.03125 8.93896H13.6562C13.8469 8.93896 14.0297 9.02457 14.1645 9.17694C14.2993 9.32931 14.375 9.53598 14.375 9.75146C14.375 9.96695 14.2993 10.1736 14.1645 10.326C14.0297 10.4784 13.8469 10.564 13.6562 10.564H5.03125C4.84063 10.564 4.65781 10.4784 4.52302 10.326C4.38823 10.1736 4.3125 9.96695 4.3125 9.75146ZM4.3125 13.0015C4.3125 12.786 4.38823 12.5793 4.52302 12.4269C4.65781 12.2746 4.84063 12.189 5.03125 12.189H13.6562C13.8469 12.189 14.0297 12.2746 14.1645 12.4269C14.2993 12.5793 14.375 12.786 14.375 13.0015C14.375 13.217 14.2993 13.4236 14.1645 13.576C14.0297 13.7284 13.8469 13.814 13.6562 13.814H5.03125C4.84063 13.814 4.65781 13.7284 4.52302 13.576C4.38823 13.4236 4.3125 13.217 4.3125 13.0015ZM4.3125 16.2515C4.3125 16.036 4.38823 15.8293 4.52302 15.6769C4.65781 15.5246 4.84063 15.439 5.03125 15.439H13.6562C13.8469 15.439 14.0297 15.5246 14.1645 15.6769C14.2993 15.8293 14.375 16.036 14.375 16.2515C14.375 16.467 14.2993 16.6736 14.1645 16.826C14.0297 16.9784 13.8469 17.064 13.6562 17.064H5.03125C4.84063 17.064 4.65781 16.9784 4.52302 16.826C4.38823 16.6736 4.3125 16.467 4.3125 16.2515ZM4.3125 19.5015C4.3125 19.286 4.38823 19.0793 4.52302 18.9269C4.65781 18.7746 4.84063 18.689 5.03125 18.689H13.6562C13.8469 18.689 14.0297 18.7746 14.1645 18.9269C14.2993 19.0793 14.375 19.286 14.375 19.5015C14.375 19.717 14.2993 19.9236 14.1645 20.076C14.0297 20.2284 13.8469 20.314 13.6562 20.314H5.03125C4.84063 20.314 4.65781 20.2284 4.52302 20.076C4.38823 19.9236 4.3125 19.717 4.3125 19.5015ZM16.5312 5.68896C16.3406 5.68896 16.1578 5.77457 16.023 5.92694C15.8882 6.07931 15.8125 6.28598 15.8125 6.50146C15.8125 6.71695 15.8882 6.92362 16.023 7.07599C16.1578 7.22836 16.3406 7.31396 16.5312 7.31396H17.9688C18.1594 7.31396 18.3422 7.22836 18.477 7.07599C18.6118 6.92362 18.6875 6.71695 18.6875 6.50146C18.6875 6.28598 18.6118 6.07931 18.477 5.92694C18.3422 5.77457 18.1594 5.68896 17.9688 5.68896H16.5312ZM16.5312 8.93896C16.3406 8.93896 16.1578 9.02457 16.023 9.17694C15.8882 9.32931 15.8125 9.53598 15.8125 9.75146C15.8125 9.96695 15.8882 10.1736 16.023 10.326C16.1578 10.4784 16.3406 10.564 16.5312 10.564H17.9688C18.1594 10.564 18.3422 10.4784 18.477 10.326C18.6118 10.1736 18.6875 9.96695 18.6875 9.75146C18.6875 9.53598 18.6118 9.32931 18.477 9.17694C18.3422 9.02457 18.1594 8.93896 17.9688 8.93896H16.5312ZM16.5312 12.189C16.3406 12.189 16.1578 12.2746 16.023 12.4269C15.8882 12.5793 15.8125 12.786 15.8125 13.0015C15.8125 13.217 15.8882 13.4236 16.023 13.576C16.1578 13.7284 16.3406 13.814 16.5312 13.814H17.9688C18.1594 13.814 18.3422 13.7284 18.477 13.576C18.6118 13.4236 18.6875 13.217 18.6875 13.0015C18.6875 12.786 18.6118 12.5793 18.477 12.4269C18.3422 12.2746 18.1594 12.189 17.9688 12.189H16.5312ZM16.5312 15.439C16.3406 15.439 16.1578 15.5246 16.023 15.6769C15.8882 15.8293 15.8125 16.036 15.8125 16.2515C15.8125 16.467 15.8882 16.6736 16.023 16.826C16.1578 16.9784 16.3406 17.064 16.5312 17.064H17.9688C18.1594 17.064 18.3422 16.9784 18.477 16.826C18.6118 16.6736 18.6875 16.467 18.6875 16.2515C18.6875 16.036 18.6118 15.8293 18.477 15.6769C18.3422 15.5246 18.1594 15.439 17.9688 15.439H16.5312ZM16.5312 18.689C16.3406 18.689 16.1578 18.7746 16.023 18.9269C15.8882 19.0793 15.8125 19.286 15.8125 19.5015C15.8125 19.717 15.8882 19.9236 16.023 20.076C16.1578 20.2284 16.3406 20.314 16.5312 20.314H17.9688C18.1594 20.314 18.3422 20.2284 18.477 20.076C18.6118 19.9236 18.6875 19.717 18.6875 19.5015C18.6875 19.286 18.6118 19.0793 18.477 18.9269C18.3422 18.7746 18.1594 18.689 17.9688 18.689H16.5312Z" fill="black" fill-opacity="0.6"/>
<path id="Vector_2" d="M3.38388 0.238702C3.30334 0.147593 3.2048 0.0794317 3.09638 0.0398407C2.98796 0.000249726 2.87277 -0.00963668 2.7603 0.0109969C2.64783 0.0316305 2.54132 0.0821929 2.44954 0.158514C2.35776 0.234835 2.28335 0.334727 2.23244 0.449952L1.51369 2.07495C1.46359 2.18794 1.43751 2.31257 1.4375 2.43895V23.564H0.71875C0.528126 23.564 0.345309 23.6496 0.210517 23.8019C0.0757252 23.9543 0 24.161 0 24.3765C0 24.5919 0.0757252 24.7986 0.210517 24.951C0.345309 25.1033 0.528126 25.189 0.71875 25.189H22.2812C22.4719 25.189 22.6547 25.1033 22.7895 24.951C22.9243 24.7986 23 24.5919 23 24.3765C23 24.161 22.9243 23.9543 22.7895 23.8019C22.6547 23.6496 22.4719 23.564 22.2812 23.564H21.5625V2.43895C21.5625 2.31257 21.5364 2.18794 21.4863 2.07495L20.7676 0.449952C20.7166 0.33502 20.6422 0.235402 20.5506 0.159285C20.4589 0.0831685 20.3526 0.0327265 20.2403 0.012105C20.1281 -0.0085166 20.0131 0.00127096 19.9048 0.0406633C19.7966 0.0800557 19.6981 0.147928 19.6176 0.238702L18.6875 1.29008L17.7589 0.238702C17.6921 0.163037 17.6128 0.103005 17.5255 0.0620445C17.4382 0.021084 17.3445 0 17.25 0C17.1555 0 17.0618 0.021084 16.9745 0.0620445C16.8872 0.103005 16.8079 0.163037 16.7411 0.238702L15.8125 1.29008L14.8839 0.238702C14.8171 0.163037 14.7378 0.103005 14.6505 0.0620445C14.5632 0.021084 14.4695 0 14.375 0C14.2805 0 14.1868 0.021084 14.0995 0.0620445C14.0122 0.103005 13.9329 0.163037 13.8661 0.238702L12.9375 1.29008L12.0089 0.238702C11.9421 0.163037 11.8628 0.103005 11.7755 0.0620445C11.6882 0.021084 11.5945 0 11.5 0C11.4055 0 11.3118 0.021084 11.2245 0.0620445C11.1372 0.103005 11.0579 0.163037 10.9911 0.238702L10.0625 1.29008L9.13387 0.238702C9.06711 0.163037 8.98779 0.103005 8.90047 0.0620445C8.81315 0.021084 8.71954 0 8.625 0C8.53046 0 8.43685 0.021084 8.34953 0.0620445C8.26221 0.103005 8.18289 0.163037 8.11613 0.238702L7.1875 1.29008L6.25887 0.238702C6.19211 0.163037 6.11279 0.103005 6.02547 0.0620445C5.93815 0.021084 5.84454 0 5.75 0C5.65546 0 5.56185 0.021084 5.47453 0.0620445C5.38721 0.103005 5.30789 0.163037 5.24113 0.238702L4.3125 1.29008L3.38388 0.238702ZM3.07194 2.18545L3.80506 3.0142C3.93985 3.16652 4.12263 3.25209 4.31322 3.25209C4.50381 3.25209 4.68659 3.16652 4.82137 3.0142L5.75 1.96283L6.67863 3.0142C6.74539 3.08987 6.82471 3.1499 6.91203 3.19086C6.99935 3.23182 7.09296 3.2529 7.1875 3.2529C7.28204 3.2529 7.37565 3.23182 7.46297 3.19086C7.55029 3.1499 7.62961 3.08987 7.69637 3.0142L8.625 1.96283L9.55363 3.0142C9.62039 3.08987 9.69971 3.1499 9.78703 3.19086C9.87435 3.23182 9.96796 3.2529 10.0625 3.2529C10.157 3.2529 10.2507 3.23182 10.338 3.19086C10.4253 3.1499 10.5046 3.08987 10.5714 3.0142L11.5 1.96283L12.4286 3.0142C12.4954 3.08987 12.5747 3.1499 12.662 3.19086C12.7493 3.23182 12.843 3.2529 12.9375 3.2529C13.032 3.2529 13.1257 3.23182 13.213 3.19086C13.3003 3.1499 13.3796 3.08987 13.4464 3.0142L14.375 1.96283L15.3036 3.0142C15.3704 3.08987 15.4497 3.1499 15.537 3.19086C15.6243 3.23182 15.718 3.2529 15.8125 3.2529C15.907 3.2529 16.0007 3.23182 16.088 3.19086C16.1753 3.1499 16.2546 3.08987 16.3214 3.0142L17.25 1.96283L18.1786 3.0142C18.2454 3.08987 18.3247 3.1499 18.412 3.19086C18.4993 3.23182 18.593 3.2529 18.6875 3.2529C18.782 3.2529 18.8757 3.23182 18.963 3.19086C19.0503 3.1499 19.1296 3.08987 19.1964 3.0142L19.9281 2.18545L20.125 2.6307V23.564H2.875V2.6307L3.07194 2.18545Z" fill="black" fill-opacity="0.6"/>
</g>
</svg>
