<svg width="31" height="31" viewBox="0 0 31 31" fill="none" xmlns="http://www.w3.org/2000/svg">
<g id="innn">
<ellipse id="Ellipse 10" cx="15.5" cy="13" rx="9.5" ry="10" fill="#96FA86"/>
<g id="Vector">
<path d="M15.5 23.56C9.67202 23.56 4.96002 18.848 4.96002 13.02C4.96002 7.19198 9.67202 2.47998 15.5 2.47998C21.328 2.47998 26.04 7.19198 26.04 13.02C26.04 18.848 21.328 23.56 15.5 23.56ZM15.5 3.71998C10.354 3.71998 6.20002 7.87398 6.20002 13.02C6.20002 18.166 10.354 22.32 15.5 22.32C20.646 22.32 24.8 18.166 24.8 13.02C24.8 7.87398 20.646 3.71998 15.5 3.71998Z" fill="#A7A7A7"/>
<path d="M15.5 23.56C9.67202 23.56 4.96002 18.848 4.96002 13.02C4.96002 7.19198 9.67202 2.47998 15.5 2.47998C21.328 2.47998 26.04 7.19198 26.04 13.02C26.04 18.848 21.328 23.56 15.5 23.56ZM15.5 3.71998C10.354 3.71998 6.20002 7.87398 6.20002 13.02C6.20002 18.166 10.354 22.32 15.5 22.32C20.646 22.32 24.8 18.166 24.8 13.02C24.8 7.87398 20.646 3.71998 15.5 3.71998Z" fill="#AAAAAA" fill-opacity="0.2"/>
</g>
<path id="Vector_2" d="M15.5 18.8481L9.48596 12.8341L10.354 11.9661L15.5 17.1121L20.646 11.9661L21.514 12.8341L15.5 18.8481Z" fill="white"/>
<path id="Vector_3" d="M14.88 7.43994H16.12V17.9799H14.88V7.43994Z" fill="white"/>
</g>
</svg>
