<svg width="32" height="32" viewBox="0 0 32 32" fill="none" xmlns="http://www.w3.org/2000/svg">
<g id="outt">
<ellipse id="Ellipse 10" cx="15.5849" cy="18.1011" rx="9.5" ry="10" transform="rotate(-179.624 15.5849 18.1011)" fill="#FACC86"/>
<g id="Vector">
<path d="M15.6541 7.54142C21.482 7.57962 26.163 12.3224 26.1248 18.1503C26.0866 23.9782 21.3438 28.6592 15.5159 28.621C9.68802 28.5828 5.00701 23.84 5.04522 18.0121C5.08343 12.1842 9.82622 7.50321 15.6541 7.54142ZM15.524 27.381C20.6699 27.4147 24.8511 23.288 24.8848 18.1422C24.9185 12.9963 20.7919 8.81513 15.646 8.78139C10.5001 8.74765 6.31893 12.8743 6.28519 18.0202C6.25145 23.1661 10.3781 27.3473 15.524 27.381Z" fill="#A7A7A7"/>
<path d="M15.6541 7.54142C21.482 7.57962 26.163 12.3224 26.1248 18.1503C26.0866 23.9782 21.3438 28.6592 15.5159 28.621C9.68802 28.5828 5.00701 23.84 5.04522 18.0121C5.08343 12.1842 9.82622 7.50321 15.6541 7.54142ZM15.524 27.381C20.6699 27.4147 24.8511 23.288 24.8848 18.1422C24.9185 12.9963 20.7919 8.81513 15.646 8.78139C10.5001 8.74765 6.31893 12.8743 6.28519 18.0202C6.25145 23.1661 10.3781 27.3473 15.524 27.381Z" fill="#AAAAAA" fill-opacity="0.2"/>
</g>
<path id="Vector_2" d="M15.6232 12.2533L21.5977 18.3066L20.724 19.1689L15.6118 13.9892L10.4322 19.1014L9.56993 18.2277L15.6232 12.2533Z" fill="white"/>
<path id="Vector_3" d="M16.1684 23.6652L14.9284 23.657L14.9975 13.1173L16.2375 13.1254L16.1684 23.6652Z" fill="white"/>
</g>
</svg>
