<svg width="147" height="126" viewBox="0 0 147 126" fill="none" xmlns="http://www.w3.org/2000/svg">
<g id="stocksss">
<path id="Vector" d="M146.988 112.404C146.99 114.188 146.582 115.955 145.788 117.603C144.993 119.252 143.828 120.75 142.359 122.012C140.89 123.274 139.146 124.276 137.225 124.959C135.305 125.642 133.247 125.994 131.169 125.994H16.016C11.8189 125.992 7.79457 124.559 4.82826 122.01C1.86196 119.462 0.196575 116.006 0.198412 112.404V13.5842C0.198412 6.08317 7.28125 0 16.016 0H131.169C133.247 0.000259992 135.304 0.351845 137.224 1.03468C139.144 1.71751 140.888 2.71822 142.357 3.97965C143.826 5.24108 144.991 6.73853 145.786 8.38648C146.58 10.0344 146.989 11.8006 146.988 13.5842V112.404Z" fill="#E6E7E8"/>
<path id="Vector_2" d="M0.19841 21.8812H147H0.19841ZM0.19841 20.8891H147V22.8693H0.221481L0.19841 20.8891ZM0.19841 51.1643H147H0.19841ZM0.19841 50.1742H147V52.1544H0.221481L0.19841 50.1742ZM0.19841 80.5109H147H0.19841ZM0.19841 79.5247H147V81.5049H0.221481L0.19841 79.5247ZM0.19841 109.802H147H0.19841ZM0.19841 108.802H147V110.782H0.221481L0.19841 108.802ZM23.7171 126V0.0197754V126Z" fill="#939598"/>
<path id="Vector_3" d="M22.5612 0H24.8683V126H22.5612V0ZM57.8393 126V0.019802V126ZM56.6765 0H58.9836V126H56.6765V0ZM92.0261 126V0.019802V126ZM90.8771 0H93.1843V126H90.8771V0ZM126.139 126V0.019802V126ZM124.976 0H127.283V126H124.976V0Z" fill="#939598"/>
<path id="Vector_4" d="M0 83.9803L40.0076 54.1189C39.5659 53.4971 39.1579 52.8581 38.7849 52.204C37.1214 51.7625 35.4488 51.4773 33.8292 50.9229L0 76.0377V83.9981" fill="#75258B"/>
<path id="Vector_5" d="M63.1549 84.362C67.6699 84.76 67.1877 84.4076 70.0186 82.0392L38.7803 51.2115C38.1684 50.6081 37.3023 50.238 36.3725 50.1827C35.4427 50.1273 34.5253 50.3913 33.8223 50.9165C33.1192 51.4416 32.688 52.185 32.6236 52.9831C32.5591 53.7811 32.8666 54.5685 33.4785 55.1719L63.0742 84.3719C63.1018 84.364 63.1226 84.358 63.1549 84.362ZM146.979 52.6155L129.092 34.964C128.79 34.6657 128.421 34.4215 128.009 34.2454C127.596 34.0692 127.147 33.9645 126.687 33.9373C126.228 33.9101 125.766 33.9609 125.329 34.0868C124.892 34.2126 124.489 34.4111 124.141 34.6709C123.792 34.9301 123.506 35.2458 123.299 35.6C123.093 35.9542 122.969 36.34 122.937 36.7352C122.904 37.1303 122.963 37.5271 123.109 37.9028C123.256 38.2785 123.487 38.6256 123.79 38.9244L146.977 61.8016L146.979 52.6155Z" fill="#75258B"/>
<path id="Vector_6" d="M69.5133 82.4573C67.7138 83.8019 65.2267 83.8712 63.9532 82.6078C62.682 81.3543 63.1042 79.2494 64.8991 77.9068L122.877 34.6177C124.669 33.2791 127.163 33.2098 128.439 34.4633C129.711 35.7167 129.286 37.8296 127.489 39.1682L69.5133 82.4573Z" fill="#75258B"/>
</g>
</svg>
